<svg xmlns="http://www.w3.org/2000/svg" version="1.1" xmlns:xlink="http://www.w3.org/1999/xlink" xmlns:svgjs="http://svgjs.dev/svgjs" width="1000" height="313" viewBox="0 0 1000 313"><g transform="matrix(1,0,0,1,-0.6060606060606233,-0.3236313409787499)"><svg viewBox="0 0 396 124" data-background-color="#000000" preserveAspectRatio="xMidYMid meet" height="313" width="1000" xmlns="http://www.w3.org/2000/svg" xmlns:xlink="http://www.w3.org/1999/xlink"><g id="tight-bounds" transform="matrix(1,0,0,1,0.2400000000000091,0.1282117772567517)"><svg viewBox="0 0 395.52 123.74357644548653" height="123.74357644548653" width="395.52"><g><svg viewBox="0 0 395.52 123.74357644548653" height="123.74357644548653" width="395.52"><g><svg viewBox="0 0 395.52 123.74357644548653" height="123.74357644548653" width="395.52"><g id="textblocktransform"><svg viewBox="0 0 395.52 123.74357644548653" height="123.74357644548653" width="395.52" id="textblock"><g><rect width="395.52" height="94.51333130128957" fill="none" stroke-width="9.018103199999999" stroke="#ffffff" data-fill-palette-color="none" data-stroke-palette-color="tertiary"></rect><rect width="395.52" height="29.230245144196957" y="94.51333130128957" fill="#ffffff" data-fill-palette-color="tertiary"></rect></g><g><svg viewBox="0 0 395.52 94.51333130128957" height="94.51333130128957" width="395.52"><g transform="matrix(1,0,0,1,23.607599999999998,23.607599999999998)"><svg width="348.3048" viewBox="3.6500000953674316 -34.349998474121094 255.8800048828125 34.75" height="47.29813130128957" data-palette-color="#ffffff"><path d="M16.6 0L16.6 0 3.65 0 3.65-33.7 14.7-33.7Q20-33.7 23.05-31.23 26.1-28.75 26.1-24.7L26.1-24.7Q26.1-21.9 24.53-19.8 22.95-17.7 20.5-17.1L20.5-17.1Q23.25-16.6 25.13-14.55 27-12.5 27-9.05L27-9.05Q27-5.05 24.28-2.53 21.55 0 16.6 0ZM14.3-29.45L14.3-29.45 8.8-29.45 8.8-19.1 13.45-19.1Q17.2-19.1 19.03-20.63 20.85-22.15 20.85-24.6L20.85-24.6Q20.85-26.75 19.23-28.1 17.6-29.45 14.3-29.45ZM14.9-14.9L14.9-14.9 8.8-14.9 8.8-4.25 15.4-4.25Q21.75-4.25 21.75-9.5L21.75-9.5Q21.75-12.05 20.03-13.48 18.3-14.9 14.9-14.9ZM42.25-29.4L42.25-29.4 37.85-29.4 37.85-17.1 42.5-17.1Q45.7-17.1 47.35-18.78 49-20.45 49-23.25L49-23.25Q49-29.4 42.25-29.4ZM37.85-12.8L37.85 0 32.7 0 32.7-33.7 42.1-33.7Q47.9-33.7 51.05-30.88 54.2-28.05 54.2-23.2L54.2-23.2Q54.15-19.65 52.4-17.18 50.65-14.7 47.55-13.6L47.55-13.6 56.35 0 50.2 0 42.3-12.8 37.85-12.8ZM86.55-29.63Q90.7-24.9 90.7-17 90.7-9.1 86.52-4.35 82.35 0.4 75.25 0.4L75.25 0.4Q68.2 0.4 63.97-4.35 59.75-9.1 59.75-17L59.75-17Q59.75-24.85 63.95-29.6 68.15-34.35 75.2-34.35L75.2-34.35Q82.4-34.35 86.55-29.63ZM67.82-26.18Q65.15-22.8 65.15-17 65.15-11.2 67.9-7.8 70.65-4.4 75.25-4.4L75.25-4.4Q80-4.4 82.65-7.75 85.3-11.1 85.3-17L85.3-17Q85.3-22.85 82.62-26.2 79.95-29.55 75.2-29.55L75.2-29.55Q70.5-29.55 67.82-26.18ZM116.89-33.7L116.89-29.4 108.04-29.4 108.04 0 102.89 0 102.89-29.4 94.09-29.4 94.09-33.7 116.89-33.7ZM147.09-29.63Q151.24-24.9 151.24-17 151.24-9.1 147.06-4.35 142.89 0.4 135.79 0.4L135.79 0.4Q128.74 0.4 124.52-4.35 120.29-9.1 120.29-17L120.29-17Q120.29-24.85 124.49-29.6 128.69-34.35 135.74-34.35L135.74-34.35Q142.94-34.35 147.09-29.63ZM128.37-26.18Q125.69-22.8 125.69-17 125.69-11.2 128.44-7.8 131.19-4.4 135.79-4.4L135.79-4.4Q140.54-4.4 143.19-7.75 145.84-11.1 145.84-17L145.84-17Q145.84-22.85 143.17-26.2 140.49-29.55 135.74-29.55L135.74-29.55Q131.04-29.55 128.37-26.18ZM177.44-33.7L177.44-29.4 168.59-29.4 168.59 0 163.44 0 163.44-29.4 154.64-29.4 154.64-33.7 177.44-33.7ZM196.24-12.55L196.24 0 191.09 0 191.09-12.55 179.69-33.7 185.59-33.7 187.99-28.75Q190.29-24.1 191.69-21.1 193.09-18.1 193.34-17.4L193.34-17.4 193.64-16.75Q194.09-18.25 199.44-28.75L199.44-28.75 201.89-33.7 207.79-33.7 196.24-12.55ZM222.53-11.95L222.53-11.95 217.73-11.95 217.73 0 212.58 0 212.58-33.7 222.23-33.7Q228.03-33.7 231.43-30.63 234.83-27.55 234.83-22.75 234.83-17.95 231.41-14.95 227.98-11.95 222.53-11.95ZM222.03-29.45L222.03-29.45 217.73-29.45 217.73-16.2 222.13-16.2Q225.78-16.2 227.71-18 229.63-19.8 229.63-22.75L229.63-22.75Q229.63-25.85 227.68-27.65 225.73-29.45 222.03-29.45ZM259.53-4.3L259.53 0 240.08 0 240.08-33.7 259.28-33.7 259.28-29.4 245.23-29.4 245.23-19 257.68-19 257.68-14.7 245.23-14.7 245.23-4.3 259.53-4.3Z" opacity="1" transform="matrix(1,0,0,1,0,0)" fill="#ffffff" class="undefined-text-0" data-fill-palette-color="primary" id="text-0"></path></svg></g></svg></g></svg></g></svg></g></svg></g><defs></defs></svg><rect width="395.52" height="123.74357644548653" fill="none" stroke="none" visibility="hidden"></rect></g></svg></g></svg>